<svg width="190" height="197" viewBox="0 0 190 197" fill="none" xmlns="http://www.w3.org/2000/svg">
<path d="M23.7914 39.7308L20.5529 27.8564L32.4274 28.6308L23.7914 39.7308Z" stroke="#99907D" stroke-width="8"/>
<path d="M10.8638 15.5L43.717 30.5822" stroke="#111E1E" stroke-width="10"/>
<path d="M34.8281 37.235L21.7856 50.6995C20.7924 49.5651 19.7123 47.8627 18.632 45.4784C16.8502 41.5456 15.4266 36.5649 14.3985 31.5062C13.3747 26.4683 12.7775 21.525 12.5841 17.7457C12.5207 16.5059 12.5028 15.4306 12.5219 14.5434C13.203 14.6394 13.9927 14.766 14.8836 14.9234C18.3333 15.5327 22.9586 16.5419 27.8864 17.7584C35.036 19.5234 42.4874 21.6429 47.79 23.5115L34.8281 37.235ZM12.7117 12.3353C12.7406 12.22 12.7479 12.2375 12.7107 12.3395C12.711 12.338 12.7114 12.3366 12.7117 12.3353Z" stroke="white" stroke-width="8"/>
<path d="M164.125 38.7541L155.571 27.7344L168.279 26.329L164.125 38.7541Z" stroke="#99907D" stroke-width="10"/>
<path d="M175.631 15.0653L139 25.235" stroke="#111E1E" stroke-width="10"/>
<path d="M153.808 36.0643L153.702 35.9454L153.586 35.8354L138.997 21.923C140.281 20.8839 142.209 19.7711 144.897 18.6854C149.264 16.9213 154.765 15.5722 160.328 14.6421C165.87 13.7156 171.305 13.2327 175.464 13.138C177.022 13.1025 178.353 13.1227 179.416 13.1857C179.277 14.0599 179.083 15.1105 178.834 16.3182C178.037 20.1903 176.748 25.3509 175.199 30.7422C173.65 36.1336 171.862 41.6815 170.078 46.3402C169.28 48.4221 168.518 50.2318 167.815 51.7327L153.808 36.0643ZM181.655 13.4781C181.653 13.4791 181.623 13.4707 181.571 13.4503C181.631 13.4669 181.657 13.4772 181.655 13.4781ZM179.672 10.8595C179.67 10.8435 179.671 10.8426 179.671 10.859L179.672 10.8595Z" stroke="white" stroke-width="8"/>
<path d="M143.29 180.718L156.817 172.161C156.432 173.952 155.168 176.401 150.384 179.269C147.933 180.738 146.176 181.019 145.036 180.999C144.446 180.989 143.865 180.895 143.29 180.718Z" stroke="#99907D" stroke-width="20"/>
<mask id="path-8-inside-1_179_31" fill="white">
<path d="M65.711 178.035L31.0418 159.999C28.149 163.265 23.7154 178.272 38.4075 186.349C53.0996 194.426 60.0311 186.146 65.711 178.035Z"/>
</mask>
<path d="M31.0418 159.999L40.2722 142.256L26.4226 135.051L16.0708 146.737L31.0418 159.999ZM65.711 178.035L82.0938 189.507L95.1786 170.821L74.9414 160.293L65.711 178.035ZM38.4075 186.349L28.7726 203.875L38.4075 186.349ZM21.8114 177.741L56.4805 195.778L74.9414 160.293L40.2722 142.256L21.8114 177.741ZM49.3282 166.563C48.6961 167.466 48.1674 168.197 47.6778 168.832C47.1913 169.462 46.8133 169.904 46.5215 170.216C45.8978 170.881 45.9591 170.632 46.7156 170.265C47.124 170.067 47.651 169.877 48.2583 169.761C48.8685 169.644 49.3809 169.638 49.728 169.667C50.3933 169.722 49.921 169.856 48.0424 168.823L28.7726 203.875C40.2135 210.165 52.5904 211.869 64.162 206.26C73.6853 201.644 79.4505 193.282 82.0938 189.507L49.3282 166.563ZM48.0424 168.823C47.131 168.322 47.3016 168.183 47.6582 168.759C47.9799 169.279 48.0664 169.76 48.0802 169.956C48.0878 170.062 48.0805 170.045 48.0755 170.062C48.067 170.091 48.0051 170.299 47.8132 170.683C47.7142 170.881 47.5486 171.189 47.2958 171.581C47.0558 171.954 46.6405 172.552 46.0128 173.26L16.0708 146.737C12.7056 150.536 10.7907 155.113 9.73693 158.654C8.54611 162.656 7.80631 167.508 8.18038 172.784C8.99381 184.258 15.0749 196.345 28.7726 203.875L48.0424 168.823Z" fill="#99907D" mask="url(#path-8-inside-1_179_31)"/>
<circle cx="95.2188" cy="96.5" r="82.5" fill="#FEFEFE" stroke="#203030" stroke-width="15"/>
<circle cx="95.2188" cy="96.5" r="82.5" stroke="#203030" stroke-width="15"/>
<path d="M30.22 148.5C28.1475 168.189 27.1712 188.782 36.5 189.5C56 191 60 189 70.7198 175M161.5 145C163.5 161.5 172.5 188.5 158.72 189.5C144.94 190.5 132 194 125 175M22.7195 59.5C1.7193 54.5 5.21864 6 5.21864 6C5.21864 6 52.2193 9.5 58.7195 22M131.719 22C137.719 3 184.219 7.5 184.219 7.5C184.219 7.5 184.219 54.5 170.219 59.5" stroke="#223031" stroke-width="10"/>
<path d="M80.7188 141C80.7188 141 97.7188 159 113.719 139.5" stroke="#203030" stroke-width="5" stroke-linecap="round"/>
<circle cx="51.7188" cy="75" r="12.5" fill="#203030"/>
<ellipse cx="97.2188" cy="103.5" rx="31" ry="26" stroke="#203030" stroke-width="8"/>
<circle cx="108.719" cy="103" r="7.5" fill="#203030"/>
<circle cx="86.7188" cy="103" r="7.5" fill="#203030"/>
<circle cx="141.719" cy="75" r="12.5" fill="#203030"/>
<ellipse cx="151.719" cy="105.5" rx="9.5" ry="8" fill="#99907D"/>
<ellipse cx="41.7188" cy="106.5" rx="9.5" ry="8" fill="#99907D"/>
<circle cx="49.7188" cy="71" r="3.5" fill="#D9D9D9"/>
<circle cx="141.719" cy="71" r="3.5" fill="#D9D9D9"/>
</svg>
